<?xml version="1.0" encoding="UTF-8" standalone="no"?>
<!-- Created with Inkscape (http://www.inkscape.org/) -->

<svg
   width="350"
   height="350"
   viewBox="0 0 92.604169 92.604169"
   version="1.1"
   id="svg5"
   inkscape:version="1.1 (ce6663b3b7, 2021-05-25)"
   sodipodi:docname="logo.svg"
   inkscape:export-filename="/home/gouderg/Documents/project_hub/website-cv/img/logo.png"
   inkscape:export-xdpi="96"
   inkscape:export-ydpi="96"
   xmlns:inkscape="http://www.inkscape.org/namespaces/inkscape"
   xmlns:sodipodi="http://sodipodi.sourceforge.net/DTD/sodipodi-0.dtd"
   xmlns="http://www.w3.org/2000/svg"
   xmlns:svg="http://www.w3.org/2000/svg">
  <sodipodi:namedview
     id="namedview7"
     pagecolor="#ffffff"
     bordercolor="#666666"
     borderopacity="1.0"
     inkscape:pageshadow="2"
     inkscape:pageopacity="0"
     inkscape:pagecheckerboard="0"
     inkscape:document-units="px"
     showgrid="false"
     inkscape:zoom="1.1656213"
     inkscape:cx="20.589878"
     inkscape:cy="240.6442"
     inkscape:window-width="1848"
     inkscape:window-height="1016"
     inkscape:window-x="72"
     inkscape:window-y="27"
     inkscape:window-maximized="1"
     inkscape:current-layer="layer1"
     width="250px" />
  <defs
     id="defs2">
    <inkscape:path-effect
       effect="spiro"
       id="path-effect4337"
       is_visible="true"
       lpeversion="1" />
    <inkscape:path-effect
       effect="spiro"
       id="path-effect4333"
       is_visible="true"
       lpeversion="1" />
  </defs>
  <g
     inkscape:label="Calque 1"
     inkscape:groupmode="layer"
     id="layer1">
    <path
       style="fill:#227fda;fill-opacity:1;fill-rule:nonzero;stroke-width:0.102764"
       d="m 27.388107,71.234254 c -0.236875,0.43618 -0.3709,0.936308 -0.3709,1.467556 0,1.699988 1.37805,3.07786 3.078041,3.07786 1.522094,-0.08277 2.69548,-1.146705 3.000775,-2.450043 l 18.789191,2.38e-4 9.388001,-16.260495 c 1.356272,0.44798 2.886461,-0.09977 3.628759,-1.385472 0.849993,-1.472232 0.345572,-3.354775 -1.126665,-4.204771 -1.472235,-0.849995 -3.354779,-0.345568 -4.204772,1.126664 -0.689367,1.359558 -0.35479,2.907556 0.621287,3.823616 l -9.032171,15.644179 -18.050484,-6.75e-4 c -0.29017,-1.398555 -1.529131,-2.449794 -3.013725,-2.449795 -1.168745,3e-6 -2.186092,0.651615 -2.707337,1.611138 z m 1.534206,0.831099 c 0.225948,-0.415773 0.665993,-0.697597 1.17245,-0.697597 0.736662,10e-7 1.334355,0.596896 1.334356,1.333559 -1e-6,0.736663 -0.597547,1.333981 -1.334209,1.333981 -0.736664,0 -1.333331,-0.597172 -1.33333,-1.333834 1e-6,-0.230206 0.05806,-0.447105 0.160733,-0.636109 z M 61.081069,53.477892 c 0.368332,-0.637969 1.18417,-0.856571 1.822138,-0.48824 0.637969,0.368332 0.85657,1.184168 0.488239,1.822136 -0.368332,0.63797 -1.184167,0.856574 -1.822137,0.488242 -0.637968,-0.368331 -0.856572,-1.184168 -0.48824,-1.822138 z"
       id="path23807" />
    <path
       style="fill:#06154f;fill-opacity:1;fill-rule:nonzero;stroke-width:0.102764"
       d="m 15.402351,41.111506 c -0.49618,0.01295 -0.996316,0.146946 -1.45639,0.41257 -1.472232,0.849995 -1.976481,2.732357 -1.126484,4.204592 0.832731,1.276786 2.340815,1.761001 3.622186,1.373725 l 9.39439,16.272036 h 18.776002 c 0.290174,1.398556 1.529637,2.449861 3.014233,2.449861 1.699987,10e-7 3.078107,-1.378113 3.078107,-3.078105 0,-1.699991 -1.37812,-3.078109 -3.078106,-3.078108 -1.522095,0.08277 -2.695412,1.146521 -3.000705,2.449858 H 26.561242 L 17.536585,46.48542 c 1.066099,-0.950572 1.357017,-2.549163 0.614721,-3.834859 -0.584374,-1.012162 -1.65736,-1.567406 -2.748951,-1.539061 z m 0.04735,1.744213 c 0.473045,-0.01222 0.937134,0.227967 1.190366,0.666565 0.36833,0.637969 0.150252,1.454033 -0.487717,1.822366 -0.637971,0.368331 -1.454035,0.1495 -1.822367,-0.488468 -0.368332,-0.637969 -0.149499,-1.453285 0.488469,-1.821615 0.199365,-0.115101 0.416232,-0.173272 0.631253,-0.178855 z m 32.176595,18.556565 c 0.736662,-10e-7 1.333897,0.597235 1.333898,1.333897 -1e-6,0.736663 -0.597235,1.333895 -1.333898,1.333895 -0.736664,0 -1.333899,-0.597232 -1.333899,-1.333896 10e-7,-0.736661 0.597234,-1.333897 1.333899,-1.333896 z"
       id="path23809" />
    <path
       style="fill:#0b2a6a;fill-opacity:1;fill-rule:nonzero;stroke-width:0.102764"
       d="m 35.496539,15.670164 c -0.259302,-0.423231 -0.625416,-0.789363 -1.08549,-1.054987 -1.472233,-0.849994 -3.354531,-0.345504 -4.204525,1.126732 -0.689366,1.359557 -0.354665,2.907705 0.621412,3.823768 l -9.394802,16.271797 9.388001,16.260495 c -1.066099,0.950577 -1.356827,2.549634 -0.614526,3.835335 0.849994,1.472231 2.732534,1.976661 4.204773,1.126664 1.472234,-0.849994 1.976658,-2.732539 1.126665,-4.204772 -0.832731,-1.276786 -2.340622,-1.761035 -3.621992,-1.373757 l -9.032172,-15.64418 9.025828,-15.63184 c 1.356269,0.447983 2.886148,-0.09937 3.628446,-1.385064 0.58437,-1.012164 0.528733,-2.219019 -0.04161,-3.150191 z m -1.486858,0.913109 c 0.247101,0.403559 0.271141,0.925565 0.01792,1.364169 -0.368331,0.637967 -1.184103,0.857138 -1.822073,0.488806 -0.637969,-0.368332 -0.856488,-1.18448 -0.488157,-1.822449 0.368331,-0.637969 1.183831,-0.856112 1.821799,-0.487781 0.199363,0.115105 0.358173,0.273833 0.470518,0.457255 z m 0.01784,37.14403 c 0.368331,0.637968 0.149728,1.453806 -0.488241,1.822138 -0.637968,0.368331 -1.453804,0.149726 -1.822134,-0.488243 -0.368333,-0.63797 -0.149731,-1.453805 0.488237,-1.822137 0.637969,-0.368331 1.453807,-0.149729 1.822138,0.488242 z"
       id="path23811" />
    <path
       style="fill:#1755a2;fill-opacity:1;fill-rule:nonzero;stroke-width:0.102764"
       d="m 79.562242,50.474318 c 0.496172,-0.01295 0.996312,-0.146948 1.456386,-0.41257 1.472236,-0.849993 1.976484,-2.732357 1.126486,-4.20459 -0.832729,-1.276785 -2.340816,-1.761002 -3.622187,-1.373727 l -9.394391,-16.272037 -18.776002,-10e-7 c -0.290173,-1.398554 -1.529637,-2.449859 -3.014233,-2.44986 -1.69999,2e-6 -3.078107,1.378113 -3.078109,3.078107 -1e-6,1.699992 1.37812,3.078108 3.078111,3.078106 1.522094,-0.08277 2.695406,-1.146517 3.000701,-2.449857 h 18.064344 l 9.024653,15.632513 c -1.066096,0.950575 -1.357018,2.549163 -0.61472,3.83486 0.58438,1.012164 1.657361,1.567405 2.748957,1.539063 z m -0.04735,-1.744213 c -0.473048,0.01221 -0.937135,-0.227968 -1.190367,-0.666566 -0.368329,-0.637968 -0.150249,-1.454032 0.487722,-1.822364 0.637971,-0.36833 1.454032,-0.149501 1.822362,0.488467 0.368329,0.637968 0.149502,1.453286 -0.488467,1.821614 -0.199364,0.115103 -0.416232,0.173274 -0.631254,0.178855 z M 47.338298,30.17354 c -0.736661,0 -1.333897,-0.597235 -1.333903,-1.333893 2e-6,-0.736665 0.597238,-1.333897 1.333898,-1.333896 0.736669,-2e-6 1.333905,0.597229 1.333903,1.333894 -2e-6,0.736662 -0.597236,1.333899 -1.333898,1.333895 z"
       id="path23813" />
    <path
       style="fill:#1c6abe;fill-opacity:1;fill-rule:nonzero;stroke-width:0.102764"
       d="m 59.468051,75.915662 c 0.259303,0.423222 0.625417,0.789358 1.08549,1.054983 1.472233,0.849999 3.354532,0.345507 4.204526,-1.126729 0.689365,-1.359557 0.354664,-2.907707 -0.621413,-3.82377 L 73.531456,55.748348 64.143457,39.487854 c 1.066097,-0.950577 1.356827,-2.549634 0.614524,-3.835334 -0.849997,-1.472235 -2.732534,-1.976663 -4.204773,-1.126667 -1.472238,0.849995 -1.97666,2.732541 -1.126662,4.204774 0.83273,1.276786 2.340616,1.761033 3.621988,1.373756 l 9.032173,15.644181 -9.025827,15.631834 c -1.35627,-0.44798 -2.886149,0.09937 -3.628447,1.385066 -0.58437,1.012171 -0.528732,2.219019 0.04161,3.150198 z m 1.486859,-0.913113 c -0.247101,-0.403562 -0.271142,-0.925566 -0.01792,-1.364171 0.368332,-0.637966 1.184105,-0.857135 1.822075,-0.488801 0.637969,0.368333 0.856487,1.184477 0.488156,1.822444 -0.368331,0.637967 -1.183831,0.856116 -1.821798,0.487783 C 61.22606,75.344701 61.067249,75.18597 60.954904,75.002549 Z M 60.93707,37.858521 c -0.368329,-0.637968 -0.149728,-1.453806 0.488235,-1.822142 0.637969,-0.368329 1.453807,-0.149725 1.822135,0.488243 0.368338,0.637973 0.149739,1.45381 -0.488232,1.82214 -0.637971,0.368329 -1.453809,0.149728 -1.822138,-0.488241 z"
       id="path23815" />
    <path
       style="fill:#113f86;fill-opacity:1;fill-rule:nonzero;stroke-width:0.102764"
       d="m 67.576483,20.351568 c 0.236874,-0.436179 0.3709,-0.936308 0.370899,-1.467555 0,-1.699988 -1.378049,-3.077862 -3.07804,-3.07786 -1.522094,0.08277 -2.69548,1.146704 -3.000775,2.450043 l -18.789191,-2.38e-4 -9.388001,16.260494 c -1.356272,-0.44798 -2.88646,0.09977 -3.628759,1.385473 -0.849993,1.472232 -0.345572,3.354773 1.126666,4.204772 1.472234,0.849995 3.354778,0.345567 4.204772,-1.126665 0.689366,-1.359558 0.354789,-2.907556 -0.621287,-3.823617 l 9.032171,-15.644179 18.050483,6.76e-4 c 0.290171,1.398555 1.529131,2.449794 3.013725,2.449795 1.168745,-4e-6 2.186093,-0.651614 2.707338,-1.611136 z m -1.534206,-0.831099 c -0.225948,0.415773 -0.665992,0.697597 -1.172448,0.6976 -0.736661,0 -1.334355,-0.596894 -1.334356,-1.33356 2e-6,-0.736662 0.597547,-1.333979 1.334209,-1.333979 0.736664,-10e-7 1.333331,0.597172 1.333331,1.333833 -2e-6,0.230205 -0.05806,0.447104 -0.160735,0.636109 z m -32.158754,18.58746 c -0.368331,0.637968 -1.184169,0.85657 -1.822138,0.48824 -0.637968,-0.368331 -0.856569,-1.184168 -0.488238,-1.822137 0.368333,-0.637969 1.184168,-0.856574 1.822137,-0.488242 0.637967,0.368332 0.856572,1.184169 0.488239,1.822139 z"
       id="path23817" />
  </g>
</svg>
