<!-- Big data by Vectors Market from <a href="https://thenounproject.com/browse/icons/term/big-data/" target="_blank" title="Big data Icons">Noun Project</a> (CC BY 3.0) -->
<svg xmlns="http://www.w3.org/2000/svg" version="1.1" viewBox="-5.0 -10.0 110.0 110.0" fill="#f7b36f">
 <g>
  <path d="m56.926 64.715c-0.34375 0-0.625 0.28125-0.625 0.625v10.738l-2.0234-2.0234c-0.24609-0.24609-0.64062-0.24609-0.88281 0-0.24219 0.24609-0.24609 0.64062 0 0.88281l2.8125 2.8125c0.36719 0.36328 0.97266 0.37109 1.3516-0.003906l2.8281-2.8281c0.24609-0.24609 0.24609-0.64062 0-0.88281-0.24609-0.24219-0.64062-0.24609-0.88281 0l-1.9531 1.9531v-10.648c0-0.34375-0.28125-0.625-0.625-0.625z"/>
  <path d="m66.457 75.668c0.34375 0 0.625-0.28125 0.625-0.625v-10.637l1.9531 1.9531c0.12109 0.12109 0.28125 0.18359 0.44141 0.18359 0.16016 0 0.32031-0.0625 0.44141-0.18359 0.24609-0.24609 0.24609-0.64062 0-0.88281l-2.8281-2.8281c-0.17969-0.18359-0.42188-0.28125-0.67578-0.28125h-0.003906c-0.25781 0-0.49609 0.10156-0.67578 0.28125l-2.8125 2.8125c-0.24609 0.24609-0.24609 0.64062 0 0.88281s0.64062 0.24609 0.88281 0l2.0234-2.0234v10.723c0.003906 0.34375 0.28125 0.625 0.62891 0.625z"/>
  <path d="m61.457 24.664h10.992c0.34375 0 0.625-0.28125 0.625-0.625v-9.5586c1.1797-0.25 2.0859-1.2461 2.0859-2.5 0-1.4375-1.168-2.6055-2.6055-2.6055s-2.6094 1.1719-2.6094 2.6055c0 1.1797 0.80078 2.1367 1.8789 2.457v8.9727h-10.367c-0.34375 0-0.625 0.28125-0.625 0.625 0 0.34766 0.28125 0.62891 0.625 0.62891z"/>
  <path d="m61.457 34.93h6.5078v8.2539c-1.1289 0.28516-1.9805 1.2656-1.9805 2.4805 0 1.4375 1.168 2.6055 2.6055 2.6055s2.6055-1.168 2.6055-2.6055c0-1.2148-0.85156-2.1914-1.9805-2.4805v-8.8789c0-0.34375-0.28125-0.625-0.625-0.625h-7.1328c-0.34375 0-0.625 0.28125-0.625 0.625 0 0.34766 0.28125 0.625 0.625 0.625z"/>
  <path d="m61.844 28.785c-0.34375 0-0.625 0.28125-0.625 0.625s0.28125 0.625 0.625 0.625h16.281c0.28516 1.125 1.2617 1.9805 2.4805 1.9805 1.4375 0 2.6055-1.168 2.6055-2.6055s-1.168-2.6055-2.6055-2.6055c-1.2148 0-2.1914 0.85156-2.4805 1.9805z"/>
  <path d="m9.9336 29.992c-0.28125 0.51953-0.45312 1.0508-0.45312 1.5898 0 0.35938 0.078125 0.70703 0.19922 1.0469 0.03125 10.066-0.070313 10.598 0.074218 10.977 0 0.20703 0.1875 0.63281 0.27344 0.82031-0.65234 1.0938-0.65625 1.8789-0.35156 2.7656 0.027344 11-0.070312 10.488 0.09375 11.137 1.0195 4.1562 10.59 7.1758 22.758 7.1758 0.52734 0 1.043-0.011718 1.5625-0.023437-0.68359 2.4766-0.81641 5.3789-0.32812 8.6914 1.2617 8.4492 9.0391 12.223 15.691 9.0312 2.6836 5.6367 8.6641 8.5977 14.348 6.9766 3.5742-1.0234 6.4492-3.625 7.9961-7.1992 8.8516 5.6133 19.871-1.9492 18.629-12.996-0.039062-0.34375-0.35547-0.58594-0.69141-0.55078-0.34375 0.039062-0.58984 0.34766-0.55078 0.69141 1.1211 9.9883-9.1289 17.297-17.316 11.398-0.33594-0.24219-0.80859-0.097657-0.95313 0.28906-2.9492 8.0234-12.484 10.156-18.211 3.9844-0.97266-1.0156-1.7695-2.2578-2.375-3.6875-0.066406-0.16016-0.19922-0.28516-0.36328-0.34375-0.16406-0.058594-0.34375-0.046875-0.5 0.03125-0.79688 0.41016-1.4141 0.67578-1.9844 0.85156-5.8594 1.6602-11.469-1.8516-12.484-8.6641-0.48438-3.3047-0.33984-6.168 0.39062-8.5508 10.57-0.42969 18.73-3.207 19.863-6.9336 0.25-0.83984 0.10938-0.92188 0.14844-4.1094 0.078124-0.039063 0.16797-0.046875 0.22656-0.11719 1.1758-1.3984 3.125-2.4961 5.8906-3.3398 5.4258-1.0547 10.883 2.5117 12.684 8.2969 0.12109 0.37891 0.60547 0.55078 0.94141 0.33203 4.0859-1.1055 8.3672 0.33594 11.199 3.7812 0.22266 0.26953 0.61719 0.30078 0.87891 0.085938 0.26562-0.21875 0.30469-0.61328 0.085938-0.87891-3.0625-3.7227-7.6641-5.3398-12.113-4.2891-2.1758-6.0391-8.0547-9.6914-13.977-8.5391-2.582 0.78516-4.4766 1.793-5.8164 3.0352v-5.5625c0.3125-0.88281 0.30469-1.6992-0.35938-2.8008 0.11719-0.25391 0.35938-0.66797 0.35938-1.4023v-10.375c0.30859-0.87109 0.28906-1.6328-0.25391-2.6406 0.33984-0.87891 0.25391 0.11328 0.25391-11.535 0.12109-0.33984 0.19922-0.6875 0.19922-1.0508 0-4.9766-11.727-7.9258-23.074-7.9258-11.324 0-23.051 2.9492-23.051 7.9258 0 0.35938 0.078125 0.70703 0.19922 1.0469 0.042969 11.66-0.12891 10.508 0.26172 11.555zm44.219 13.016c0 0.375-0.15625 0.77734-0.33594 1.1055-1.9375 3.2266-10.891 5.5703-21.289 5.5703-1.2812 0-2.543-0.039063-3.7773-0.10938-8.6328-0.50391-15.84-2.6875-17.496-5.4805-0.11719-0.18359-0.19922-0.38281-0.25-0.53906 0-0.058594-0.007812-0.11719-0.023437-0.17188-0.09375-0.34375-0.03125-0.070312-0.050781-8.9688 3.457 3.2305 12.637 5.0898 21.602 5.0898 8.9727 0 18.164-1.8594 21.625-5.0898zm-0.097656 15.141c-0.91406 3-9.2148 6.1055-21.527 6.1055-12.363 0-20.809-3.2305-21.523-6.125 0-0.058594-0.007812-0.11719-0.023437-0.17188-0.09375-0.33594-0.03125-0.078125-0.050781-8.957 7.2383 6.8633 36.082 6.6641 43.227-0.011719-0.035156 9.3008 0.070312 8.582-0.10156 9.1602zm-18.676-39.191h0.023438c4.1016 0.074219 7.5234-0.75 10.227-2.4258 0.73828-0.42969 1.3203 0.62891 0.64844 1.0742-4.7773 2.9688-10.488 2.5547-10.898 2.6016-0.35156-0.023437-0.625-0.30078-0.625-0.64844 0-0.32812 0.30078-0.60156 0.625-0.60156zm18.773 1.2812v8.5938c-0.050782 0.25391 0.007812 0.43359-0.23438 0.92188-1.3945 2.7891-9.3672 5.7539-21.391 5.7539-1.4961 0-2.9336-0.046874-4.3008-0.13281-9.5586-0.60547-15.809-3.1758-17.059-5.6133-0.35547-0.80859-0.21875-0.30078-0.24219-9.5234 3.457 3.2266 12.641 5.0938 21.602 5.0938 8.9805 0 18.168-1.8672 21.625-5.0938z"/>
  <path d="m17.672 41.98c0 2.3906-3.582 2.3906-3.582 0 0-2.3867 3.582-2.3867 3.582 0"/>
  <path d="m21.613 41.805c-0.98828 0-1.7891 0.80469-1.7891 1.7891 0 0.98828 0.80469 1.793 1.7891 1.793 0.98828 0 1.7891-0.80469 1.7891-1.793 0-0.98438-0.80078-1.7891-1.7891-1.7891z"/>
  <path d="m15.879 54.988c-0.98828 0-1.7891 0.80469-1.7891 1.7891 0 0.98828 0.80469 1.793 1.7891 1.793 0.98828 0 1.7891-0.80469 1.7891-1.793 0.003906-0.98438-0.80078-1.7891-1.7891-1.7891z"/>
  <path d="m21.613 56.605c-0.98828 0-1.7891 0.80469-1.7891 1.793 0 0.98828 0.80469 1.7891 1.7891 1.7891 0.98828 0 1.7891-0.80469 1.7891-1.7891 0-0.98828-0.80078-1.793-1.7891-1.793z"/>
  <path d="m16.402 29.809c0.98828 0 1.7891-0.80469 1.7891-1.793s-0.80469-1.7891-1.7891-1.7891c-0.98828 0-1.7891 0.80469-1.7891 1.7891-0.003906 0.98828 0.80078 1.793 1.7891 1.793z"/>
  <path d="m22.133 31.422c0.98828 0 1.793-0.80469 1.793-1.7891 0-0.98828-0.80469-1.793-1.793-1.793-0.98828 0-1.7891 0.80469-1.7891 1.793 0 0.98438 0.80469 1.7891 1.7891 1.7891z"/>
  <path d="m27.25 42.523c-0.99219 0-1.8008 0.79687-1.8008 1.7734 0 0.99219 0.80859 1.8008 1.8008 1.8008s1.8008-0.80859 1.8008-1.8008c0-0.97656-0.80859-1.7734-1.8008-1.7734z"/>
 </g>
</svg>