<svg xmlns="http://www.w3.org/2000/svg" version="1.1" viewBox="-5.0 -10.0 110.0 110.0" fill="#f7b36f">
 <path d="m54.215 22.586 2.1055-4.4336h4.3984c0.36328 0.85547 1.207 1.4531 2.1914 1.4531 1.3125 0 2.3828-1.0664 2.3828-2.3828 0-1.3125-1.0664-2.3828-2.3828-2.3828-0.98438 0-1.832 0.60156-2.1914 1.4531h-4.9844c-0.35938 0-0.68359 0.20703-0.83594 0.53125l-2.5938 5.4648c-0.76563-0.082031-1.5352-0.125-2.3008-0.125s-1.5312 0.042969-2.3008 0.125l-2.5938-5.4648c-0.15234-0.32422-0.48047-0.53125-0.83594-0.53125h-4.9844c-0.36328-0.85547-1.207-1.4531-2.1914-1.4531-1.3125 0-2.3828 1.0664-2.3828 2.3828 0 1.3125 1.0664 2.3828 2.3828 2.3828 0.98438 0 1.832-0.60156 2.1914-1.4531h4.3984l2.1055 4.4336c-5.7734 1.1406-11.559 4.6094-17.258 10.359-0.35938 0.35938-0.35938 0.94531 0 1.3047 5.668 5.7188 11.426 9.1836 17.168 10.34l-2.0117 4.2422h-4.3984c-0.36328-0.85547-1.207-1.4531-2.1914-1.4531-1.3125 0-2.3828 1.0664-2.3828 2.3828 0 1.3125 1.0664 2.3828 2.3828 2.3828 0.98438 0 1.832-0.60156 2.1914-1.4531h4.9844c0.35938 0 0.68359-0.20703 0.83594-0.53125l2.5-5.2656c0.79688 0.089844 1.5977 0.13672 2.3945 0.13672 0.79688 0 1.5977-0.046875 2.3945-0.13672l2.5 5.2656c0.15234 0.32422 0.48047 0.53125 0.83594 0.53125h4.9844c0.36328 0.85547 1.207 1.4531 2.1914 1.4531 1.3125 0 2.3828-1.0664 2.3828-2.3828 0-1.3125-1.0664-2.3828-2.3828-2.3828-0.98437 0-1.832 0.60156-2.1914 1.4531h-4.3984l-2.0117-4.2422c5.7422-1.1562 11.5-4.6211 17.168-10.34 0.35938-0.35938 0.35938-0.94531 0-1.3047-5.6992-5.75-11.484-9.2188-17.258-10.359zm8.6953-5.8867c0.28906 0 0.52734 0.23828 0.52734 0.52734 0 0.28906-0.23828 0.52734-0.52734 0.52734-0.28906 0-0.52734-0.23828-0.52734-0.52734 0-0.28906 0.23828-0.52734 0.52734-0.52734zm-25.82 1.0547c-0.28906 0-0.52734-0.23828-0.52734-0.52734 0-0.28906 0.23828-0.52734 0.52734-0.52734 0.28906 0 0.52734 0.23828 0.52734 0.52734 0 0.28906-0.23828 0.52734-0.52734 0.52734zm0 32.531c-0.28906 0-0.52734-0.23828-0.52734-0.52734 0-0.28906 0.23828-0.52734 0.52734-0.52734 0.28906 0 0.52734 0.23828 0.52734 0.52734 0 0.28906-0.23828 0.52734-0.52734 0.52734zm25.82-1.0547c0.28906 0 0.52734 0.23828 0.52734 0.52734 0 0.28906-0.23828 0.52734-0.52734 0.52734-0.28906 0-0.52734-0.23828-0.52734-0.52734 0-0.28906 0.23828-0.52734 0.52734-0.52734zm-12.91-6.0586c-6.4336 0-12.988-3.2227-19.496-9.5742 6.5078-6.3555 13.066-9.5742 19.496-9.5742 6.4336 0 12.988 3.2227 19.496 9.5742-6.5078 6.3555-13.066 9.5742-19.496 9.5742zm-18.562-18.344c0.98438 0 1.832-0.60156 2.1914-1.4531h4.4688c0.51172 0 0.92578-0.41406 0.92578-0.92578s-0.41406-0.92578-0.92578-0.92578h-4.4688c-0.36328-0.85547-1.207-1.4531-2.1914-1.4531-1.3125 0-2.3828 1.0664-2.3828 2.3828 0 1.3125 1.0664 2.3828 2.3828 2.3828zm0-2.9102c0.28906 0 0.52734 0.23828 0.52734 0.52734 0 0.28906-0.23828 0.52734-0.52734 0.52734s-0.52734-0.23828-0.52734-0.52734c0-0.28906 0.23828-0.52734 0.52734-0.52734zm17.637-6.5586v4.4688c0 0.51172 0.41406 0.92578 0.92578 0.92578s0.92578-0.41406 0.92578-0.92578v-4.4688c0.85547-0.36328 1.4531-1.207 1.4531-2.1914 0-1.3125-1.0664-2.3828-2.3828-2.3828-1.3125 0-2.3828 1.0664-2.3828 2.3828 0 0.98438 0.60156 1.832 1.4531 2.1914zm0.92578-2.7188c0.28906 0 0.52734 0.23828 0.52734 0.52734 0 0.28906-0.23828 0.52734-0.52734 0.52734s-0.52734-0.23828-0.52734-0.52734c0-0.28906 0.23828-0.52734 0.52734-0.52734zm11.902 8.8828c-0.51172 0-0.92578 0.41406-0.92578 0.92578s0.41406 0.92578 0.92578 0.92578h4.4688c0.36328 0.85547 1.207 1.4531 2.1914 1.4531 1.3125 0 2.3828-1.0664 2.3828-2.3828 0-1.3125-1.0664-2.3828-2.3828-2.3828-0.98438 0-1.832 0.60156-2.1914 1.4531h-4.4688zm6.6641 0.39844c0.28906 0 0.52734 0.23828 0.52734 0.52734 0 0.28906-0.23828 0.52734-0.52734 0.52734-0.28906 0-0.52734-0.23828-0.52734-0.52734 0-0.28906 0.23828-0.52734 0.52734-0.52734zm-30.465 23.543c0.51172 0 0.92578-0.41406 0.92578-0.92578 0-0.51172-0.41406-0.92578-0.92578-0.92578h-4.4688c-0.36328-0.85547-1.207-1.4531-2.1914-1.4531-1.3125 0-2.3828 1.0664-2.3828 2.3828 0 1.3125 1.0664 2.3828 2.3828 2.3828 0.98438 0 1.832-0.60156 2.1914-1.4531h4.4688zm-6.6641-0.39844c-0.28906 0-0.52734-0.23828-0.52734-0.52734 0-0.28906 0.23828-0.52734 0.52734-0.52734s0.52734 0.23828 0.52734 0.52734c0 0.28906-0.23828 0.52734-0.52734 0.52734zm19.492 6.5586v-4.4688c0-0.51172-0.41406-0.92578-0.92578-0.92578-0.51172 0-0.92578 0.41406-0.92578 0.92578v4.4688c-0.85547 0.36328-1.4531 1.207-1.4531 2.1914 0 1.3125 1.0664 2.3828 2.3828 2.3828 1.3125 0 2.3828-1.0664 2.3828-2.3828 0-0.98438-0.60156-1.832-1.4531-2.1914zm-0.92578 2.7188c-0.28906 0-0.52734-0.23828-0.52734-0.52734 0-0.28906 0.23828-0.52734 0.52734-0.52734 0.28906 0 0.52734 0.23828 0.52734 0.52734 0 0.28906-0.23828 0.52734-0.52734 0.52734zm18.562-12.191c-0.98438 0-1.832 0.60156-2.1914 1.4531h-4.4688c-0.51172 0-0.92578 0.41406-0.92578 0.92578s0.41406 0.92578 0.92578 0.92578h4.4688c0.36328 0.85547 1.207 1.4531 2.1914 1.4531 1.3125 0 2.3828-1.0664 2.3828-2.3828 0-1.3125-1.0664-2.3828-2.3828-2.3828zm0 2.9102c-0.28906 0-0.52734-0.23828-0.52734-0.52734 0-0.28906 0.23828-0.52734 0.52734-0.52734 0.28906 0 0.52734 0.23828 0.52734 0.52734 0 0.28906-0.23828 0.52734-0.52734 0.52734zm-14.082-16.383c-0.007813-0.003907-0.011719-0.011719-0.019531-0.015626-0.011719-0.011718-0.023438-0.023437-0.035156-0.03125-1.1758-1.0508-2.7305-1.6914-4.4297-1.6914-3.6719 0-6.6562 2.9883-6.6562 6.6562 0 3.6719 2.9883 6.6562 6.6562 6.6562 3.6719 0 6.6562-2.9883 6.6562-6.6562 0-1.8477-0.75781-3.5195-1.9727-4.7266-0.0625-0.066406-0.12891-0.12891-0.19922-0.19141zm-1.832 1.168c0.23828 0 0.45703 0.089844 0.625 0.23828 0.027344 0.023437 0.054687 0.050781 0.082031 0.078124 0.15625 0.17188 0.25391 0.39453 0.25391 0.64453 0 0.52734-0.42969 0.95703-0.95703 0.95703s-0.95703-0.42969-0.95703-0.95703 0.42969-0.95703 0.95703-0.95703zm-2.6484 8.5547c-2.6484 0-4.8047-2.1562-4.8047-4.8047 0-2.6484 2.1562-4.8047 4.8047-4.8047 0.21875 0 0.43359 0.015625 0.64453 0.042969-0.5 0.50781-0.80859 1.2031-0.80859 1.9688 0 1.5508 1.2617 2.8125 2.8125 2.8125 0.82031 0 1.5547-0.35547 2.0703-0.91406 0.054688 0.28906 0.085938 0.58984 0.085938 0.89453 0 2.6484-2.1562 4.8047-4.8047 4.8047zm43.672-32.195h-87.352c-1.7656 0-3.1992 1.4336-3.1992 3.1992v56.73c0 1.7656 1.4336 3.1992 3.1992 3.1992h32.727l-3.2422 13.895h-10.992c-1.418 0-2.7461 0.54688-3.7422 1.5391-0.99219 0.99219-1.5391 2.3203-1.5391 3.7422 0 2.9141 2.3711 5.2812 5.2812 5.2812h50.371c1.418 0 2.7461-0.54688 3.7422-1.5391 0.99219-0.99219 1.5391-2.3203 1.5391-3.7422 0-2.9141-2.3711-5.2812-5.2812-5.2812h-10.949l-3.2422-13.895h32.68c1.7656 0 3.1992-1.4336 3.1992-3.1992v-56.73c0-1.7656-1.4336-3.1992-3.1992-3.1992zm-88.695 3.1992c0-0.74219 0.60547-1.3438 1.3438-1.3438h87.352c0.74219 0 1.3438 0.60547 1.3438 1.3438v49.52h-90.039zm73.637 79.109c0 0.92188-0.35547 1.7852-0.99609 2.4297-0.64453 0.64453-1.5078 0.99609-2.4297 0.99609h-50.379c-1.8906 0-3.4297-1.5391-3.4297-3.4258 0-0.92188 0.35547-1.7852 0.99609-2.4297 0.64453-0.64453 1.5078-0.99609 2.4297-0.99609h50.371c1.8906 0 3.4297 1.5391 3.4297 3.4297zm-16.281-5.2812h-24.621l3.2422-13.895h18.137zm32.688-17.094c0 0.74219-0.60547 1.3438-1.3438 1.3438h-33.789c-0.019531 0-0.042969-0.003906-0.0625-0.003906h-19.605c-0.023437 0-0.042968 0.003906-0.0625 0.003906l-33.836-0.003906c-0.74219 0-1.3438-0.60547-1.3438-1.3438v-5.3555h90.043zm-45.02 0.51172c1.3867 0 2.5156-1.1289 2.5156-2.5156s-1.1289-2.5156-2.5156-2.5156c-1.3867 0-2.5156 1.1289-2.5156 2.5156s1.1289 2.5156 2.5156 2.5156zm0-3.1758c0.36328 0 0.66016 0.29688 0.66016 0.66016s-0.29687 0.66016-0.66016 0.66016c-0.36328 0-0.66016-0.29688-0.66016-0.66016s0.29688-0.66016 0.66016-0.66016z"/>
</svg>