<svg xmlns="http://www.w3.org/2000/svg" xmlns:xlink="http://www.w3.org/1999/xlink" version="1.1" x="0px" y="0px" viewBox="0 0 64 64" fill="#f7b36f" enable-background="new 0 0 64 64" xml:space="preserve"><g><path d="M44.03,58H44.02c-0.552,0-0.994,0.447-0.994,1s0.452,1,1.005,1c0.552,0,1-0.447,1-1S44.582,58,44.03,58z"/><path d="M48.03,58H48.02c-0.552,0-0.994,0.447-0.994,1s0.452,1,1.005,1c0.552,0,1-0.447,1-1S48.582,58,48.03,58z"/><path d="M52.03,58H52.02c-0.552,0-0.994,0.447-0.994,1s0.452,1,1.005,1c0.552,0,1-0.447,1-1S52.582,58,52.03,58z"/><path d="M12.03,58H12.02c-0.552,0-0.994,0.447-0.994,1s0.452,1,1.005,1c0.552,0,1-0.447,1-1S12.582,58,12.03,58z"/><path d="M16.03,58H16.02c-0.552,0-0.994,0.447-0.994,1s0.452,1,1.005,1c0.552,0,1-0.447,1-1S16.582,58,16.03,58z"/><path d="M20.03,58H20.02c-0.552,0-0.994,0.447-0.994,1s0.452,1,1.005,1c0.552,0,1-0.447,1-1S20.582,58,20.03,58z"/><path d="M57,0H7C3.141,0,0,3.141,0,7v50c0,3.859,3.141,7,7,7h50c3.859,0,7-3.141,7-7V7C64,3.141,60.859,0,57,0z M62,57   c0,2.757-2.243,5-5,5H7c-2.757,0-5-2.243-5-5V7c0-2.757,2.243-5,5-5h50c2.757,0,5,2.243,5,5V57z"/><path d="M56,7H8C7.447,7,7,7.447,7,8v47c0,0.553,0.447,1,1,1h48c0.553,0,1-0.447,1-1V8C57,7.447,56.553,7,56,7z M31.995,50v-0.169   c0.853-0.341,1.661-0.811,2.391-1.389l1.021,0.59c0.018,0.01,0.039,0.01,0.057,0.019c0.061,0.03,0.124,0.047,0.19,0.064   c0.062,0.016,0.12,0.032,0.185,0.037c0.023,0.002,0.044,0.014,0.068,0.014h1.096V50H31.995z M26.995,50v-0.875   c0-0.439-0.286-0.827-0.706-0.956c-1.073-0.329-2.046-0.895-2.892-1.68c-0.323-0.301-0.801-0.352-1.181-0.134l-0.768,0.443   l-1.5-2.598l0.765-0.441c0.38-0.22,0.572-0.66,0.476-1.088c-0.129-0.566-0.194-1.129-0.194-1.672c0-0.545,0.065-1.107,0.194-1.672   c0.098-0.428-0.095-0.869-0.475-1.089l-0.765-0.441l1.5-2.598l0.768,0.443c0.381,0.218,0.857,0.167,1.181-0.134   c0.845-0.784,1.817-1.349,2.891-1.679c0.42-0.129,0.706-0.517,0.706-0.956v-0.876h3v0.876c0,0.439,0.286,0.827,0.706,0.956   c1.059,0.325,2.058,0.906,2.89,1.679c0.321,0.301,0.801,0.352,1.181,0.134L35.54,35.2l1.501,2.598l-0.765,0.441   c-0.38,0.22-0.572,0.66-0.476,1.088c0.129,0.566,0.194,1.129,0.194,1.673s-0.065,1.106-0.193,1.672   c-0.098,0.428,0.095,0.868,0.475,1.088l0.764,0.441l-1.5,2.599l-0.768-0.443c-0.38-0.219-0.857-0.166-1.181,0.134   c-0.845,0.784-1.817,1.349-2.891,1.679c-0.42,0.129-0.706,0.517-0.706,0.956V50H26.995z M42.808,39.327   c0.129,0.566,0.194,1.129,0.194,1.673s-0.065,1.106-0.193,1.672c-0.013,0.055-0.007,0.108-0.011,0.163h-4.123l-0.785-0.453   c0.07-0.465,0.105-0.928,0.105-1.382s-0.035-0.917-0.105-1.383l0.786-0.453h4.122C42.801,39.219,42.795,39.272,42.808,39.327z    M42.336,47.166h-4.697l1.345-2.331h4.697L42.336,47.166z M42.335,34.834l1.347,2.33h-4.697l-1.346-2.33H42.335z M37.002,32.834   h-1.097c-0.021,0-0.037,0.011-0.058,0.012c-0.068,0.004-0.133,0.021-0.2,0.04c-0.064,0.018-0.127,0.033-0.185,0.063   c-0.019,0.01-0.039,0.009-0.058,0.02l-1.021,0.59c-0.729-0.578-1.537-1.048-2.39-1.389v-0.17h5.007V32.834z M39.002,49.832   c0.459-0.183,0.9-0.411,1.328-0.666h2.583c0.001,0,0.001,0,0.002,0c0.117-0.001,0.231-0.028,0.342-0.069   c0.027-0.011,0.054-0.021,0.081-0.033c0.102-0.048,0.197-0.106,0.279-0.188c0.005-0.006,0.009-0.013,0.014-0.019   c0.056-0.058,0.106-0.119,0.148-0.191l2.5-4.331c0.011-0.019,0.01-0.038,0.02-0.057c0.029-0.06,0.045-0.123,0.063-0.188   c0.018-0.066,0.036-0.13,0.04-0.197c0.001-0.02,0.012-0.037,0.012-0.058c0-0.042-0.019-0.078-0.024-0.119   c-0.008-0.07-0.018-0.138-0.041-0.204c-0.021-0.061-0.051-0.114-0.082-0.169c-0.032-0.055-0.063-0.107-0.105-0.156   c-0.046-0.053-0.099-0.094-0.154-0.136c-0.033-0.025-0.056-0.061-0.093-0.082l-1.017-0.587c0.07-0.465,0.105-0.928,0.105-1.382   s-0.035-0.917-0.105-1.383l1.018-0.587c0.037-0.021,0.061-0.058,0.095-0.083c0.054-0.041,0.105-0.081,0.15-0.133   c0.041-0.046,0.07-0.097,0.102-0.15c0.034-0.058,0.066-0.114,0.089-0.18c0.008-0.021,0.024-0.039,0.03-0.062   c0.012-0.044,0.003-0.088,0.009-0.133c0.006-0.043,0.025-0.081,0.025-0.126c0-0.022-0.012-0.042-0.013-0.064   c-0.005-0.067-0.021-0.13-0.04-0.195c-0.018-0.063-0.032-0.125-0.062-0.183c-0.009-0.019-0.009-0.04-0.02-0.058l-2.502-4.33   c-0.021-0.037-0.056-0.059-0.081-0.092c-0.043-0.057-0.084-0.109-0.138-0.155c-0.048-0.042-0.101-0.073-0.155-0.105   c-0.056-0.032-0.108-0.062-0.17-0.082c-0.066-0.023-0.134-0.033-0.204-0.042c-0.041-0.005-0.076-0.023-0.118-0.023H40.33   c-0.427-0.254-0.867-0.482-1.328-0.666v-1.169c0-0.553-0.447-1-1-1H31c-0.001,0-0.002,0.001-0.002,0.001   c-0.001,0-0.002-0.001-0.003-0.001h-5c-0.553,0-1,0.447-1,1v1.17c-0.853,0.341-1.661,0.811-2.391,1.389l-1.021-0.59   c-0.23-0.132-0.505-0.167-0.759-0.1c-0.256,0.068-0.475,0.236-0.607,0.466l-2.5,4.33c-0.133,0.229-0.168,0.503-0.1,0.759   s0.236,0.475,0.466,0.607l1.017,0.587c-0.07,0.465-0.105,0.928-0.105,1.383c0,0.454,0.035,0.916,0.105,1.382l-1.018,0.587   c-0.229,0.133-0.397,0.352-0.466,0.607s-0.033,0.529,0.1,0.759l2.5,4.33c0.133,0.229,0.352,0.397,0.607,0.466   c0.255,0.067,0.528,0.032,0.759-0.1l1.021-0.59c0.729,0.579,1.539,1.05,2.392,1.39V50H9V21h18v2c0,0.553,0.447,1,1,1h1v1.999   c0,0.553,0.447,1,1,1h1v1c0,0.553,0.447,1,1,1s1-0.447,1-1v-1h1c0.553,0,1-0.447,1-1V24h1c0.553,0,1-0.447,1-1v-2h18v29H39.002   V49.832z M37,15h18v4H37V15z M35,22h-6V12h6V22z M33,24.999h-2V24h2V24.999z M27,19H9v-4h18V19z M55,9v4H37v-2c0-0.553-0.447-1-1-1   h-8c-0.553,0-1,0.447-1,1v2H9V9H55z M9,54v-2h16.99c0.002,0,0.003,0.001,0.005,0.001h5C30.997,52.001,30.998,52,31,52h6.997   c0.002,0,0.003,0.001,0.005,0.001S38.005,52,38.007,52H55v2H9z"/><path d="M39,58H25c-0.553,0-1,0.447-1,1s0.447,1,1,1h14c0.553,0,1-0.447,1-1S39.553,58,39,58z"/><path d="M31.995,41c0-1.93-1.57-3.5-3.5-3.5s-3.5,1.57-3.5,3.5s1.57,3.5,3.5,3.5S31.995,42.93,31.995,41z M28.495,42.5   c-0.827,0-1.5-0.673-1.5-1.5s0.673-1.5,1.5-1.5s1.5,0.673,1.5,1.5S29.322,42.5,28.495,42.5z"/></g></svg>