<!-- fullstack by iconfield from <a href="https://thenounproject.com/browse/icons/term/fullstack/" target="_blank" title="fullstack Icons">Noun Project</a> (CC BY 3.0) -->
<svg xmlns="http://www.w3.org/2000/svg" data-name="Layer 1" viewBox="0 0 512 512" x="0px" y="0px" fill="#f7b36f">
<path d="M464,36.65625H48c-20.95312,0-38,17.04688-38,38V437.34375c0,20.95312,17.04688,38,38,38H464c20.95312,0,38-17.04688,38-38V74.65625c0-20.95312-17.04688-38-38-38Zm0,426.6875H48c-14.33691,0-26-11.66309-26-26V160.87012H101.81152c3.31348,0,6-2.68652,6-6s-2.68652-6-6-6H22V74.65625c0-14.33691,11.66309-26,26-26H464c14.33691,0,26,11.66309,26,26v74.21387H130.88672c-3.31348,0-6,2.68652-6,6s2.68652,6,6,6H490V437.34375c0,14.33691-11.66309,26-26,26Z"/><path d="M206.07715,117.10498c10.12988,0,18.3418-8.21191,18.3418-18.3418s-8.21191-18.34229-18.3418-18.34229-18.34204,8.2124-18.34204,18.34229,8.21191,18.3418,18.34204,18.3418Z"/><path d="M136.4585,117.10498c10.13013,0,18.34229-8.21191,18.34229-18.3418s-8.21216-18.34229-18.34229-18.34229-18.3418,8.2124-18.3418,18.34229,8.21191,18.3418,18.3418,18.3418Z"/><path d="M66.32202,80.4209c-10.12988,0-18.34204,8.2124-18.34204,18.34229s8.21216,18.3418,18.34204,18.3418,18.34204-8.21191,18.34204-18.3418-8.21191-18.34229-18.34204-18.34229Z"/><path d="M358.69336,104.7627c3.31348,0,6-2.68652,6-6,0-4.88281,3.97168-8.85449,8.85449-8.85449h75.61719c4.88281,0,8.85449,3.97168,8.85449,8.85449s-3.97168,8.85547-8.85449,8.85547h-62.16211c-3.31348,0-6,2.68652-6,6s2.68652,6,6,6h62.16211c11.49902,0,20.85449-9.35547,20.85449-20.85547,0-11.49902-9.35547-20.85449-20.85449-20.85449h-75.61719c-11.49902,0-20.85449,9.35547-20.85449,20.85449,0,3.31348,2.68652,6,6,6Z"/><path d="M393.00293,313.3584c0-5.69629-3.49121-10.54004-8.89453-12.34277l-27.90283-9.30322,26.00537-8.6709c6.38989-2.13037,6.38989-11.16895,0-13.29932l-123.08472-41.03906c-2.0293-.67676-4.22314-.67676-6.25244,0l-123.08472,41.03906c-6.38989,2.13037-6.38989,11.16895,0,13.29932l26.00635,8.6709-27.90479,9.3042c-5.40234,1.80176-8.89355,6.64551-8.89355,12.3418,0,5.69531,3.49121,10.53906,8.89453,12.3418l18.41772,6.14062-18.4187,6.1416c-5.40234,1.80176-8.89355,6.64551-8.89355,12.3418,0,5.69531,3.49121,10.53906,8.89453,12.3418l111.5918,37.20605c5.32617,1.77637,10.9209,2.66406,16.5166,2.66406s11.19043-.8877,16.5166-2.66406c3.14355-1.04785,4.8418-4.44629,3.79297-7.58984-1.04785-3.14258-4.44336-4.83984-7.58984-3.79297-8.20117,2.73438-17.2373,2.73535-25.44043-.00098l-111.5918-37.20605c-.20703-.06934-.69043-.23047-.69043-.95801,0-.72852,.4834-.88965,.68945-.95801l33.59277-11.2002,44.05957,14.69043c3.13965,1.04688,6.54102-.65039,7.58984-3.79492,1.04785-3.14355-.65137-6.54102-3.79492-7.58984l-81.44629-27.15527c-.20703-.06934-.69043-.23047-.69043-.95801,0-.72852,.4834-.88965,.68945-.95801l43.07837-14.36328,66.6167,22.21143c9.48877,3.16406,19.74805,3.16406,29.23682,0l66.61743-22.21143,43.07666,14.3623c.20703,.06934,.69043,.23047,.69043,.95898,0,.72754-.4834,.88867-.68945,.95703l-111.59375,37.20801c-8.20117,2.73438-17.23828,2.73438-25.43945,0-3.14355-1.05176-6.54199,.64941-7.58984,3.79297-1.04883,3.14355,.64941,6.54199,3.79297,7.58984,5.32617,1.77637,10.9209,2.66406,16.5166,2.66406,5.59473,0,11.19141-.8877,16.51562-2.66309l74.20435-24.74121,33.59253,11.19922c.20703,.06934,.69043,.23047,.69043,.95898,0,.72754-.4834,.88867-.68945,.95703l-80.95312,26.99121c-3.14355,1.04883-4.84277,4.44629-3.79492,7.58984,.83887,2.51465,3.17969,4.10449,5.69141,4.10449,.62891,0,1.26953-.10059,1.89844-.30957l80.9541-26.99219c5.40234-1.80176,8.89355-6.64551,8.89355-12.34082,0-5.69629-3.49121-10.54004-8.89453-12.34277l-18.41821-6.14062,18.41919-6.1416c5.40234-1.80176,8.89355-6.64551,8.89355-12.34082Z"/>
</svg>