<svg width="31" height="32" viewBox="0 0 31 32" fill="none" xmlns="http://www.w3.org/2000/svg">
<path fill-rule="evenodd" clip-rule="evenodd" d="M10.374 15.3298L14.7821 19.7378C15.9995 20.9553 17.8594 21.2571 19.3994 20.4871L19.8989 20.2374C21.4388 19.4674 23.2987 19.7692 24.5162 20.9866L29.9818 26.4523C30.3723 26.8428 30.3723 27.4759 29.9818 27.8665C29.9058 27.9425 29.818 28.0057 29.7219 28.0538L25.306 30.2617C21.9277 31.9509 17.8477 31.2888 15.177 28.618L3.17932 16.6204C0.272244 13.7133 -0.742857 9.41326 0.557228 5.513L2.16688 0.684044C2.34153 0.1601 2.90785 -0.12306 3.43179 0.051588C3.57907 0.100681 3.7129 0.18339 3.82267 0.293165L9.12522 5.59571C10.3427 6.81315 10.6445 8.67304 9.8745 10.213L9.62474 10.7125C8.85476 12.2525 9.15658 14.1124 10.374 15.3298V15.3298Z" fill="white"/>
</svg>
